{"title":"Anna Maria Jopek - Farat (live in concert)","uid":8547354,"size":734095360,"categoryP":"video","categoryS":"other","magnet":"?xt=urn:btih:a5c5fa08ce977020555284f9e5799e48f50f8f64&amp;dn=Anna+Maria+Jopek+-+Farat+%28live+in+concert%29&amp;tr=udp%3A%2F%2Ftracker.openbittorrent.com%3A80&amp;tr=udp%3A%2F%2Fopen.demonii.com%3A1337&amp;tr=udp%3A%2F%2Ftracker.coppersurfer.tk%3A6969&amp;tr=udp%3A%2F%2Fexodus.desync.com%3A6969","seeders":1,"leechers":0,"uploader":"zvucnjak","files":1,"time":1370555562,"description":"Great concert with some of the best Polish musicians.\n\n\nGeneral\nComplete name                            : D:!!! Koncerti i DVDripAnna-Maria-Jopek_Farat_phoenix.avi\nFormat                                   : AVI\nFormat/Info                              : Audio Video Interleave\nFile size                                : 700 MiB\nDuration                                 : 2h 0mn\nOverall bit rate mode                    : Variable\nOverall bit rate                         : 816 Kbps\nWriting application                      : VirtualDubMod 1.5.4.1 (build 2178/release)\nWriting library                          : VirtualDubMod build 2178/release\n\nVideo\nID                                       : 0\nFormat                                   : MPEG-4 Visual\nFormat profile                           : Advanced Simple@L5\nFormat settings, BVOP                    : 1\nFormat settings, QPel                    : No\nFormat settings, GMC                     : No warppoints\nFormat settings, Matrix                  : Custom\nCodec ID                                 : XVID\nCodec ID/Hint                            : XviD\nDuration                                 : 2h 0mn\nBit rate                                 : 682 Kbps\nWidth                                    : 560 pixels\nHeight                                   : 320 pixels\nDisplay aspect ratio                     : 16:9\nFrame rate                               : 25.000 fps\nColor space                              : YUV\nChroma subsampling                       : 4:2:0\nBit depth                                : 8 bits\nScan type                                : Progressive\nCompression mode                         : Lossy\nBits/(Pixel*Frame)                       : 0.152\nStream size                              : 585 MiB (84%)\nWriting library                          : XviD 1.2.1 (UTC 2008-12-04)\n\nAudio\nID                                       : 1\nFormat                                   : MPEG Audio\nFormat version                           : Version 1\nFormat profile                           : Layer 3\nMode                                     : Joint stereo\nMode extension                           : MS Stereo\nCodec ID                                 : 55\nCodec ID/Hint                            : MP3\nDuration                                 : 1h 59mn\nBit rate mode                            : Variable\nBit rate                                 : 121 Kbps\nNominal bit rate                         : 128 Kbps\nChannel(s)                               : 2 channels\nSampling rate                            : 48.0 KHz\nCompression mode                         : Lossy\nDelay relative to video                  : 576ms\nStream size                              : 104 MiB (15%)\nAlignment                                : Split accross interleaves\nInterleave, duration                     : 24 ms (0.60 video frame)\nInterleave, preload duration             : 1603 ms\nWriting library                          : LAME3.98r\nEncoding settings                        : -m j -V 4 -q 2 -lowpass 17 --abr 128\nLanguage                                 : Polish","torrent":{"xt":"urn:btih:a5c5fa08ce977020555284f9e5799e48f50f8f64","amp;dn":"Anna+Maria+Jopek+-+Farat+%28live+in+concert%29","amp;tr":["udp%3A%2F%2Ftracker.openbittorrent.com%3A80","udp%3A%2F%2Fopen.demonii.com%3A1337","udp%3A%2F%2Ftracker.coppersurfer.tk%3A6969","udp%3A%2F%2Fexodus.desync.com%3A6969"],"infoHash":"a5c5fa08ce977020555284f9e5799e48f50f8f64","infoHashBuffer":{"type":"Buffer","data":[165,197,250,8,206,151,112,32,85,82,132,249,229,121,158,72,245,15,143,100]},"announce":[],"urlList":[]}}